<svg xmlns="http://www.w3.org/2000/svg" viewBox="0 0 141.73 22.08"><defs><style>.cls-1,.cls-2{fill:#fff;}.cls-2{opacity:0.75;}</style></defs><title>TOPdesk_White_Logo</title><g id="TOPdesk"><polygon class="cls-1" points="27.29 0.23 27.29 3.77 33.1 3.77 33.1 21.84 37.17 21.84 37.17 3.77 42.98 3.77 42.98 0.23 27.29 0.23"/><path class="cls-1" d="M75.28,32.64h4.07V25.36l3.36,0c4.12,0,6.82-3.78,6.82-8.06,0-4-2.8-6.25-6.73-6.25H75.28ZM82.06,22.1H79.35V14.57A15,15,0,0,1,83,14.46c1.61.21,2.33,1.16,2.33,3.17S85,22.1,82.06,22.1Z" transform="translate(-11.03 -10.8)"/><path class="cls-1" d="M101.46,11v6.15c-.32-.53-2.09-.86-3.67-.86-5,0-7.35,3.06-7.35,8.29,0,4.37,3.22,8,7.4,8h7.69V11Zm0,18.27H98.32c-2.27,0-4-2.15-4-5.46,0-2.57,1.32-4.37,3.84-4.37,2.21,0,3.28,1.21,3.28,2.84Z" transform="translate(-11.03 -10.8)"/><polygon class="cls-1" points="134.25 13.06 140.97 5.52 136.15 5.52 130.34 12.49 130.34 0.23 126.27 0.23 126.27 21.84 130.34 21.84 130.34 13.84 136.86 21.84 141.73 21.84 134.25 13.06"/><path class="cls-1" d="M63.89,10.8C57.59,10.8,54,16,54,22.24c0,6.54,4.43,10.63,9.43,10.63,6.26,0,9.88-4.84,9.88-11.26C73.32,15.42,69.1,10.8,63.89,10.8Zm-.06,18.42c-3.49,0-5.57-2.7-5.57-7.55,0-4.56,2.05-7.28,5.24-7.28,3.76,0,5.57,2.87,5.57,7.85C69.07,26.46,66.87,29.22,63.83,29.22Z" transform="translate(-11.03 -10.8)"/><path class="cls-1" d="M126.73,24" transform="translate(-11.03 -10.8)"/><path class="cls-1" d="M114.15,26.3h-2.58c.29,2,2.11,3.26,4.43,3.26A7.64,7.64,0,0,0,121,28v2.75c-.19.25-1.55,2.28-5.72,2.15a7.8,7.8,0,0,1-7.77-7.95c0-5.28,3.23-8.6,7.75-8.6a6.11,6.11,0,0,1,6.33,6.13C121.57,25.36,119.37,26.3,114.15,26.3Zm.73-6.7A3.39,3.39,0,0,0,111.57,23l0,.53h1.76c3.72,0,4.57-.41,4.57-1.53C117.87,20.4,116.7,19.6,114.88,19.6Z" transform="translate(-11.03 -10.8)"/><path class="cls-1" d="M128.74,32.87a6.44,6.44,0,0,1-5.08-2.15V28h0a8.41,8.41,0,0,0,4.9,1.5c1.94,0,2.88-.56,2.88-1.74,0-.91-.56-1.35-3.29-1.73-3.34-.47-5-1.79-5-4.19,0-3,2.67-5.49,6.71-5.49a5.5,5.5,0,0,1,4.33,1.56v2.86h0a7.72,7.72,0,0,0-3.94-1c-2.4,0-3.16.73-3.16,1.76,0,.8.47,1.12,3.16,1.56,3.29.53,5.05,2,5.05,4.49C135.34,30.88,133,32.87,128.74,32.87Z" transform="translate(-11.03 -10.8)"/></g><g id="Symbol"><path class="cls-1" d="M133.32,16.52" transform="translate(-11.03 -10.8)"/><path class="cls-1" d="M26.62,29.63h0l7.79-7.8L26.62,14l-7.8,7.8L11,29.63A11,11,0,0,0,26.62,29.63Z" transform="translate(-11.03 -10.8)"/><path class="cls-2" d="M26.62,14A11,11,0,0,0,11,14l7.79,7.8,7.8-7.8Z" transform="translate(-11.03 -10.8)"/></g></svg>